<?xml version="1.0" encoding="iso-8859-1"?>
<!-- Uploaded to: SVG Repo, www.svgrepo.com, Generator: SVG Repo Mixer Tools -->
<!DOCTYPE svg PUBLIC "-//W3C//DTD SVG 1.1//EN" "http://www.w3.org/Graphics/SVG/1.1/DTD/svg11.dtd">
<svg fill="#000000" version="1.1" id="Capa_1" xmlns="http://www.w3.org/2000/svg" xmlns:xlink="http://www.w3.org/1999/xlink" 
	 width="800px" height="800px" viewBox="0 0 470.061 470.061"
	 xml:space="preserve">
<g>
	<g>
		<path d="M449.379,271.605H20.682C9.278,271.605,0,280.884,0,292.288v38.171c0,11.404,9.278,20.682,20.682,20.682h428.696
			c11.404,0,20.683-9.277,20.683-20.682v-38.171C470.061,280.884,460.783,271.605,449.379,271.605z M61.918,283.605h303.65v55.535
			H61.918V283.605z M49.918,339.141H36.959v-55.535h12.958L49.918,339.141L49.918,339.141z M12.001,330.459v-38.171
			c0-4.787,3.895-8.683,8.682-8.683h4.277v55.535h-4.277C15.895,339.141,12.001,335.246,12.001,330.459z M458.061,330.459
			c0,4.787-3.896,8.682-8.683,8.682h-71.811v-55.535h71.811c4.787,0,8.683,3.896,8.683,8.683V330.459z"/>
		<path d="M29.491,268.925c3.313,0,6-2.687,6-6v-16.884c0-5.799,8.173-10.883,17.49-10.883h41.108
			c16.261,0,29.49-13.229,29.49-29.49v-14.682c0-9.644,7.846-17.49,17.49-17.49h57.257c16.261,0,29.49-12.241,29.49-27.288V124.92
			c0-3.313-2.686-6-6-6c-3.313,0-6,2.687-6,6v21.288c0,8.43-7.846,15.288-17.49,15.288h-57.257c-16.261,0-29.49,13.229-29.49,29.49
			v14.682c0,9.644-7.846,17.49-17.49,17.49H52.981c-16.261,0-29.49,10.266-29.49,22.883v16.884
			C23.491,266.238,26.177,268.925,29.491,268.925z"/>
	</g>
</g>
</svg>