<?xml version="1.0" encoding="iso-8859-1"?>
<!-- Uploaded to: SVG Repo, www.svgrepo.com, Generator: SVG Repo Mixer Tools -->
<svg height="800px" width="800px" version="1.1" id="Layer_1" xmlns="http://www.w3.org/2000/svg" xmlns:xlink="http://www.w3.org/1999/xlink" 
	 viewBox="0 0 512 512" xml:space="preserve">
<circle style="fill:#CEE8FA;" cx="255.997" cy="255.997" r="167.991"/>
<g>
	<path style="fill:#2D527C;" d="M256,0c-7.664,0-13.877,6.213-13.877,13.877S248.336,27.753,256,27.753
		c57.945,0,110.905,21.716,151.199,57.422l-32.782,32.781C341.467,89.6,299.927,74.132,256,74.132
		c-45.158,0-86.517,16.549-118.35,43.892L95.044,75.42c-0.075-0.075-0.158-0.139-0.235-0.212c-0.071-0.075-0.132-0.154-0.205-0.228
		c-5.417-5.419-14.206-5.419-19.624,0C26.628,123.333,0,187.62,0,256c0,141.159,114.841,256,256,256
		c68.38,0,132.668-26.628,181.02-74.981S512,324.379,512,256C512,114.842,397.159,0,256,0z M365.043,147.093
		c5.415,5.423,14.2,5.427,19.624,0.011c0.402-0.402,0.766-0.828,1.109-1.264c0.029-0.029,0.061-0.053,0.09-0.082l40.958-40.957
		c32.834,37.054,53.824,84.82,56.989,137.322h-15.441c-7.663,0-13.877,6.213-13.877,13.877s6.214,13.877,13.877,13.877h15.445
		c-3.047,51.144-22.905,99.081-56.914,137.401l-32.929-32.929c27.344-31.833,43.892-73.193,43.892-118.35
		c0-7.664-6.214-13.877-13.877-13.877c-7.663,0-13.877,6.213-13.877,13.877c0,84.978-69.135,154.115-154.115,154.115
		s-154.115-69.135-154.115-154.115s69.135-154.115,154.115-154.115C297.2,101.887,335.927,117.941,365.043,147.093z M256,453.159
		c-7.664,0-13.877,6.213-13.877,13.877v16.777c-52.502-3.165-100.269-24.154-137.322-56.987l32.849-32.849
		c31.833,27.344,73.193,43.892,118.35,43.892s86.517-16.549,118.35-43.892l32.929,32.929
		c-38.319,34.009-86.258,53.867-137.403,56.914v-16.782C269.877,459.371,263.663,453.159,256,453.159z M28.188,269.877h46.47
		c3.011,39.73,18.85,75.932,43.367,104.473l-32.85,32.849C52.342,370.147,31.353,322.379,28.188,269.877z M85.096,104.722
		l32.929,32.929c-24.517,28.542-40.355,64.743-43.367,104.473H28.182C31.229,190.979,51.087,143.041,85.096,104.722z"/>
	<path style="fill:#2D527C;" d="M325.997,197.161h-16.269c-10.195-19.298-30.466-32.488-53.769-32.488h-53.975
		c-2.274,0-4.119,1.844-4.119,4.119v8.234v20.135h-11.86c-2.274,0-4.119,1.844-4.119,4.119v12.567c0,2.274,1.844,4.119,4.119,4.119
		h11.86v10.403h-11.86c-2.274,0-4.119,1.844-4.119,4.119v12.567c0,2.274,1.844,4.119,4.119,4.119h11.86v37.059v56.975
		c0,2.274,1.844,4.119,4.119,4.119h16.469c2.274,0,4.119-1.844,4.119-4.119v-56.975h33.387c25.103,0,46.696-15.298,55.958-37.059
		h14.082c2.274,0,4.119-1.844,4.119-4.119v-12.567c0-2.274-1.844-4.119-4.119-4.119h-9.333c0.046-0.967,0.074-1.939,0.074-2.917
		c0-2.537-0.175-5.03-0.477-7.486h9.736c2.274,0,4.119-1.844,4.119-4.119V201.28C330.117,199.006,328.273,197.161,325.997,197.161z
		 M222.571,189.379h33.387c8.431,0,16.19,2.915,22.34,7.781h-55.727V189.379z M255.958,261.527h-33.387v-12.352h60.53
		C276.483,256.737,266.772,261.527,255.958,261.527z M292.031,225.453c0,0.982-0.051,1.954-0.128,2.917h-69.332v-10.403h68.674
		C291.757,220.383,292.031,222.886,292.031,225.453z"/>
</g>
</svg>