<?xml version="1.0" encoding="utf-8"?><!-- Uploaded to: SVG Repo, www.svgrepo.com, Generator: SVG Repo Mixer Tools -->
<svg width="800px" height="800px" viewBox="0 0 24 24" id="Layer_1" data-name="Layer 1" xmlns="http://www.w3.org/2000/svg"><defs><style>.cls-1{fill:none;stroke:#020202;stroke-miterlimit:10;stroke-width:1.92px;}</style></defs><path class="cls-1" d="M1.46,13.44H2.9a1.44,1.44,0,0,1,1.44,1.44v0A1.44,1.44,0,0,1,2.9,16.31H1.46a0,0,0,0,1,0,0V13.44a0,0,0,0,1,0,0Z"/><path class="cls-1" d="M1.46,20.15V16.31h1a1.91,1.91,0,0,1,1.91,1.92v1.92"/><polyline class="cls-1" points="10.08 19.19 7.21 19.19 7.21 13.44 10.08 13.44"/><line class="cls-1" x1="9.13" y1="16.31" x2="7.21" y2="16.31"/><polyline class="cls-1" points="12 20.15 12 13.44 12.96 13.44 14.88 19.19 15.83 19.19 15.83 12.48"/><line class="cls-1" x1="17.75" y1="13.44" x2="23.5" y2="13.44"/><line class="cls-1" x1="20.63" y1="20.15" x2="20.63" y2="13.44"/><line class="cls-1" x1="23.5" y1="22.06" x2="0.5" y2="22.06"/><polyline class="cls-1" points="22.54 10.56 12 1.94 1.46 10.56"/></svg>