<?xml version="1.0" encoding="utf-8"?><!-- Uploaded to: SVG Repo, www.svgrepo.com, Generator: SVG Repo Mixer Tools -->
<svg fill="#000000" width="800px" height="800px" viewBox="0 0 1024 1024" xmlns="http://www.w3.org/2000/svg"><path d="M766.545 909.463c-62.106 0-112.64-50.534-112.64-112.64 0-22.927 6.851-45.005 19.825-63.836l33.731 23.214c-8.233 11.981-12.595 26.02-12.595 40.622 0 39.516 32.164 71.68 71.68 71.68s71.68-32.164 71.68-71.68c0-15.36-4.792-30.013-13.844-42.342l33.024-24.238c14.254 19.425 21.78 42.445 21.78 66.58 0 62.106-50.534 112.64-112.64 112.64z"/><path d="M851.125 780.133c-7.096 0-13.998-3.686-17.787-10.291l-66.806-116.49-66.785 116.49c-5.632 9.81-18.145 13.21-27.965 7.578-9.81-5.622-13.199-18.145-7.578-27.955l69.284-120.812c7.772-13.517 19.804-21.279 33.044-21.279 13.251 0 25.293 7.762 33.055 21.268l69.284 120.822c5.622 9.81 2.232 22.333-7.578 27.955a20.36 20.36 0 01-10.168 2.714zM542.285 81.92c5.657 0 10.24-4.583 10.24-10.24V51.2c0-5.657-4.583-10.24-10.24-10.24h-256a10.238 10.238 0 00-10.24 10.24v20.48c0 5.657 4.583 10.24 10.24 10.24h256zm0 40.96h-256c-28.278 0-51.2-22.922-51.2-51.2V51.2c0-28.278 22.922-51.2 51.2-51.2h256c28.278 0 51.2 22.922 51.2 51.2v20.48c0 28.278-22.922 51.2-51.2 51.2z"/><path d="M347.73 263.335V81.913h133.12v181.422H347.73zm92.16-40.96v-99.502h-51.2v99.502h51.2z"/><path d="M277.504 981.333c5.657 0 10.24-4.583 10.24-10.24V449.437c0-45.246 36.674-81.92 81.92-81.92H637.44c45.246 0 81.92 36.674 81.92 81.92v66.908c0 11.309 9.171 20.48 20.48 20.48h62.464c11.309 0 20.48-9.171 20.48-20.48v-68.956c0-101.8-82.52-184.32-184.32-184.32H368.64c-101.8 0-184.32 82.52-184.32 184.32v523.704c0 5.657 4.583 10.24 10.24 10.24h82.944zm0 40.96H194.56c-28.278 0-51.2-22.922-51.2-51.2V447.389c0-124.422 100.858-225.28 225.28-225.28h269.824c124.422 0 225.28 100.858 225.28 225.28v68.956c0 33.931-27.509 61.44-61.44 61.44H739.84c-33.931 0-61.44-27.509-61.44-61.44v-66.908c0-22.625-18.335-40.96-40.96-40.96H369.664c-22.625 0-40.96 18.335-40.96 40.96v521.656c0 28.278-22.922 51.2-51.2 51.2z"/></svg>